<?xml version="1.0" encoding="UTF-8"?>
<svg id="Layer_2" data-name="Layer 2" xmlns="http://www.w3.org/2000/svg" viewBox="0 0 456.22 133.54">
  <defs>
    <style>
      .cls-1 {
        fill: #231f20;
      }
    </style>
  </defs>
  <g id="Layer_1-2" data-name="Layer 1">
    <path class="cls-1" d="M9.84,77.67c-4.76-.98-6.48-2.66-6.98-3.19-2.45-2.56-2.79-5.81-2.86-7.12V0h56.26c10.5,0,20.16,1.56,28.98,4.69,8.81,3.12,16.47,7.63,22.97,13.5,6.5,5.87,11.53,12.91,15.09,21.1,3.57,8.19,5.35,17.34,5.35,27.47s-1.78,19.29-5.35,27.47c-3.56,8.19-8.59,15.22-15.09,21.1-6.5,5.88-14.13,10.38-22.88,13.5-8.75,3.12-18.32,4.69-28.7,4.69-5.3,0-9.71-4.02-10.27-9.29-2.42-23.15,7.25-34.95,7.52-35.27h0c.45-.49.6-1.19.23-1.78l-3.65-5.27v-.12c4.71-3.54,9.2-7.36,13.62-11.25,3.43,7.17,6.96,14.29,10.45,21.44.36.71,1.31.98,1.99.55l7.77-7.73c.3-.33.38-.7.34-1.14-2.74-8.25-5.65-16.44-8.47-24.66,3.97-4.24,7.94-8.58,11.35-13.29,1.59-2.21,4.58-6.58,4.87-9.24.05-.43-.03-.92,0-1.35-.99-3.49-5.37-1.39-7.48-.26-1.89,1.01-3.79,2.32-5.52,3.59-4.53,3.32-8.71,7.14-12.8,10.97l-24.6-8.46c-.47-.05-.78.04-1.15.31l-7.6,7.59c-.57.69-.44,1.77.39,2.19l21.44,10.48c-3.9,4.41-7.7,8.9-11.25,13.59-.08.04-.42-.23-.51-.29-1.54-1.01-3.19-2.42-4.76-3.3-.58-.33-1.06-.37-1.65-.01h0c-4.28,2.74-8.14,4.18-10.78,4.98-3.05.92-9.1,2.66-16.26,1.18Z"/>
    <g>
      <path class="cls-1" d="M238.57,13.74c-4.72-4.27-10.29-7.54-16.69-9.81-6.4-2.27-13.42-3.41-21.05-3.41h-40.87v97.01h41.15c7.54,0,14.49-1.13,20.85-3.41,6.36-2.27,11.9-5.54,16.62-9.81,4.72-4.27,8.38-9.38,10.97-15.33,2.59-5.95,3.88-12.6,3.88-19.96s-1.29-14.01-3.88-19.96c-2.59-5.95-6.25-11.06-10.97-15.33ZM222.62,63.06c-2,3.81-4.86,6.65-8.58,8.52-3.73,1.86-8.13,2.79-13.22,2.79h-13.62V23.69h13.62c5.09,0,9.47.93,13.15,2.79,3.68,1.86,6.54,4.66,8.58,8.38,2.04,3.73,3.07,8.4,3.07,14.03s-1,10.35-3,14.17Z"/>
      <polygon class="cls-1" points="429.24 51.97 429.24 97.54 456.22 97.54 456.22 .53 436.47 .53 404.78 47.1 372.97 .53 353.22 .53 353.22 97.54 380.2 97.54 380.2 51.82 396 74.65 413.44 74.65 429.24 51.97"/>
      <polygon class="cls-1" points="337.18 40.45 294.67 40.45 294.67 23.14 339.22 23.14 339.22 .53 294.67 .53 289.49 .53 267.42 .53 267.42 97.54 294.67 97.54 294.67 63.06 337.18 63.06 337.18 40.45"/>
      <polygon class="cls-1" points="160.44 118.56 166.14 118.56 166.14 133.23 170.25 133.23 170.25 118.56 175.93 118.56 175.93 115 160.44 115 160.44 118.56"/>
      <path class="cls-1" d="M195.97,125.07c.93-.45,1.65-1.07,2.17-1.87.52-.8.77-1.75.77-2.85,0-1.03-.25-1.95-.76-2.76s-1.22-1.44-2.13-1.9c-.91-.46-1.98-.68-3.2-.68h-7.46v18.23h4.08v-7.49h.42l5.42,7.49h4.83l-5.81-7.63c.61-.11,1.17-.28,1.68-.53ZM192.33,122.69h-2.89v-4.52h2.92c.79,0,1.41.22,1.85.65.44.43.66.97.66,1.63,0,.69-.22,1.24-.67,1.64s-1.07.61-1.86.61Z"/>
      <path class="cls-1" d="M214.3,115l-7.2,18.23h4.21l1.21-3.28h7.13l1.18,3.28h4.31l-7.15-18.23h-3.69ZM213.73,126.64l2.39-6.47,2.33,6.47h-4.72Z"/>
      <polygon class="cls-1" points="239.59 127.29 235.13 115 230.77 115 237.79 133.23 241.3 133.23 248.4 115 244.09 115 239.59 127.29"/>
      <polygon class="cls-1" points="261.78 125.64 269.91 125.64 269.91 122.2 261.78 122.2 261.78 118.51 270.69 118.51 270.69 115 261.78 115 260.82 115 257.7 115 257.7 133.23 260.82 133.23 261.78 133.23 270.84 133.23 270.84 129.71 261.78 129.71 261.78 125.64"/>
      <polygon class="cls-1" points="284.84 115 280.76 115 280.76 133.23 283.91 133.23 284.84 133.23 292.92 133.23 292.92 129.66 284.84 129.66 284.84 115"/>
      <path class="cls-1" d="M319.43,115l-7.2,18.23h4.21l1.21-3.28h7.13l1.18,3.28h4.31l-7.15-18.23h-3.69ZM318.87,126.64l2.39-6.47,2.33,6.47h-4.72Z"/>
      <path class="cls-1" d="M347.83,126.33l5.2.08c-.1.37-.22.71-.38,1.03-.4.77-.98,1.36-1.73,1.77-.75.4-1.65.61-2.7.61s-1.98-.25-2.79-.74c-.81-.49-1.45-1.17-1.91-2.03-.47-.86-.7-1.85-.7-2.97s.24-2.13.71-2.98c.47-.85,1.13-1.51,1.97-1.99s1.8-.71,2.87-.71c.98,0,1.87.19,2.67.58.8.39,1.48.96,2.05,1.72l2.79-2.79c-.84-1-1.91-1.79-3.2-2.36-1.29-.58-2.72-.86-4.29-.86-1.36,0-2.63.24-3.81.72-1.18.48-2.22,1.15-3.11,2-.9.85-1.59,1.84-2.09,2.97-.5,1.13-.75,2.36-.75,3.71s.25,2.56.74,3.69c.49,1.14,1.17,2.13,2.03,3,.86.86,1.87,1.54,3.03,2.03,1.16.49,2.41.74,3.76.74,1.81,0,3.4-.38,4.79-1.15,1.39-.77,2.47-1.9,3.25-3.4.78-1.5,1.18-3.33,1.18-5.5v-.59h-9.58v3.43Z"/>
      <polygon class="cls-1" points="371.1 125.64 379.23 125.64 379.23 122.2 371.1 122.2 371.1 118.51 380 118.51 380 115 371.1 115 370.14 115 367.02 115 367.02 133.23 370.14 133.23 371.1 133.23 380.16 133.23 380.16 129.71 371.1 129.71 371.1 125.64"/>
      <polygon class="cls-1" points="401.56 126.05 392.94 115 390.07 115 390.07 133.23 394.15 133.23 394.15 122.32 402.65 133.23 405.67 133.23 405.67 115 401.56 115 401.56 126.05"/>
      <path class="cls-1" d="M427.38,129.37c-.69.28-1.5.43-2.43.43-.79,0-1.51-.13-2.17-.4s-1.22-.65-1.7-1.16c-.48-.51-.85-1.11-1.11-1.81-.26-.7-.39-1.48-.39-2.34s.13-1.59.39-2.3c.26-.71.63-1.31,1.11-1.81.48-.5,1.05-.88,1.7-1.15.65-.27,1.38-.4,2.17-.4.89,0,1.68.15,2.36.44.68.29,1.25.7,1.72,1.21l2.74-2.76c-.84-.81-1.83-1.45-2.96-1.91s-2.41-.7-3.86-.7-2.64.24-3.8.71c-1.15.47-2.17,1.13-3.03,1.98-.87.84-1.55,1.84-2.03,2.98-.48,1.14-.72,2.38-.72,3.71s.24,2.56.72,3.71,1.16,2.15,2.03,3.01c.87.86,1.89,1.53,3.05,2,1.16.47,2.42.71,3.78.71,1.5,0,2.81-.23,3.95-.68,1.14-.46,2.13-1.1,2.99-1.92l-2.76-2.76c-.48.53-1.07.94-1.76,1.23Z"/>
      <polygon class="cls-1" points="451.6 115 447.73 121.63 443.85 115 439.16 115 445.66 125.62 445.66 133.23 449.77 133.23 449.77 125.46 456.22 115 451.6 115"/>
    </g>
  </g>
</svg>